<?xml version="1.0" encoding="UTF-8" standalone="no"?>
<!-- Created with Inkscape (http://www.inkscape.org/) -->

<svg
   xmlns:dc="http://purl.org/dc/elements/1.1/"
   xmlns:cc="http://creativecommons.org/ns#"
   xmlns:rdf="http://www.w3.org/1999/02/22-rdf-syntax-ns#"
   xmlns:svg="http://www.w3.org/2000/svg"
   xmlns="http://www.w3.org/2000/svg"
   xmlns:sodipodi="http://sodipodi.sourceforge.net/DTD/sodipodi-0.dtd"
   xmlns:inkscape="http://www.inkscape.org/namespaces/inkscape"
   width="387"
   height="496"
   id="svg2"
   version="1.1"
   inkscape:version="0.48.3.1 r9886"
   sodipodi:docname="carrier-concentration.svg">
  <defs
     id="defs4" />
  <sodipodi:namedview
     id="base"
     pagecolor="#ffffff"
     bordercolor="#666666"
     borderopacity="1.0"
     inkscape:pageopacity="0.0"
     inkscape:pageshadow="2"
     inkscape:zoom="3.959798"
     inkscape:cx="340.11699"
     inkscape:cy="74.275672"
     inkscape:document-units="px"
     inkscape:current-layer="layer1"
     showgrid="false"
     fit-margin-top="0"
     fit-margin-left="0"
     fit-margin-right="0"
     fit-margin-bottom="0"
     inkscape:window-width="1366"
     inkscape:window-height="719"
     inkscape:window-x="0"
     inkscape:window-y="29"
     inkscape:window-maximized="1" />
  <metadata
     id="metadata7">
    <rdf:RDF>
      <cc:Work
         rdf:about="">
        <dc:format>image/svg+xml</dc:format>
        <dc:type
           rdf:resource="http://purl.org/dc/dcmitype/StillImage" />
        <dc:title></dc:title>
      </cc:Work>
    </rdf:RDF>
  </metadata>
  <g
     inkscape:label="Layer 1"
     inkscape:groupmode="layer"
     id="layer1"
     transform="translate(-109.35713,-187.21931)">
    <path
       id="path2996"
       style="fill:#000000"
       d="m 424.23298,658.06943 c -17.325,-0.30672 -84.09892,-0.6711 -148.38648,-0.80972 -64.28756,-0.13863 -117.31825,-0.5189 -117.84597,-0.84505 -0.93526,-0.57803 -0.33028,-60.71761 0.74297,-73.85634 0.26956,-3.3 0.95443,-18.15 1.52192,-33 1.83967,-48.13952 1.75017,-47.11739 3.93455,-44.93301 0.57499,0.57499 0.58789,5.92752 0.0336,13.93333 -1.52518,22.02769 -3.1989,80.70323 -2.32596,81.54157 0.45397,0.43598 2.6254,0.20426 4.8254,-0.51494 12.8972,-4.21621 46.09677,-14.74434 52.31985,-16.59149 5.72714,-1.69994 7.51685,-2.69085 8.22525,-4.55408 1.05906,-2.78555 1.80737,-2.9654 3.38145,-0.81271 1.01475,1.38775 3.3918,0.807 20.61025,-5.03537 10.70476,-3.63222 22.3882,-7.46956 25.9632,-8.52741 3.575,-1.05786 10.1,-3.01624 14.5,-4.35197 4.4,-1.33573 16.55,-4.97106 27,-8.07852 10.45,-3.10746 22.375,-6.72583 26.5,-8.04081 4.125,-1.31499 12.225,-3.80228 18,-5.52731 5.775,-1.72504 11.625,-3.52765 13,-4.00581 1.375,-0.47815 4.975,-1.55298 8,-2.3885 l 5.5,-1.51913 -0.34035,-6.66037 c -0.25974,-5.0829 -0.0369,-6.55922 0.9409,-6.23329 0.88498,0.295 1.19979,2.1858 1.01785,6.11345 -0.19872,4.29001 0.0748,5.68637 1.11378,5.68637 0.75745,0 13.05258,-3.32864 27.3225,-7.39698 36.07023,-10.28359 42.44263,-11.93906 43.16733,-11.21437 0.3476,0.34761 -0.095,1.18987 -0.9829,1.87168 -1.3741,1.05485 -1.4628,2.05269 -0.5948,6.69295 0.8281,4.42657 0.7525,5.65035 -0.4016,6.5 -2.075,1.52767 -4.5171,60.33384 -2.631,63.35406 1.0042,1.60792 1.0218,2.60417 0.083,4.66562 -0.6568,1.44163 -1.1942,3.94997 -1.1942,5.57409 0,2.60122 0.3503,2.95295 2.9409,2.95295 1.6176,0 3.2191,0.45 3.5591,1 0.3553,0.57494 -0.576,1.00651 -2.191,1.01531 -5.1378,0.028 -5.7999,1.12881 -4.6048,7.65588 0.8402,4.58933 0.7935,5.98708 -0.2195,6.57309 -0.8592,0.49697 -1.5266,4.58413 -2.0087,12.29981 -0.66,10.56213 -0.5634,11.67157 1.1239,12.90535 1.7656,1.29102 1.7727,1.57897 0.1635,6.61115 -0.9254,2.89373 -1.4492,5.6389 -1.164,6.10037 0.2852,0.46147 2.067,0.83904 3.9596,0.83904 1.8925,0 3.441,0.45 3.441,1 0,0.55 -1.4625,0.90298 -3.25,0.7844 -1.7875,-0.11859 -17.425,-0.46656 -34.75003,-0.77329 z m 28.00004,-3.86189 c 0,-1.56792 -0.5012,-4.28844 -1.1138,-6.0456 -0.9095,-2.60908 -0.8257,-3.51306 0.4572,-4.93062 1.9596,-2.16531 2.6105,-23.96541 0.7499,-25.11533 -0.8241,-0.50928 -0.7288,-1.83943 0.3508,-4.89945 1.7388,-4.92824 1.8842,-11.73928 0.3941,-18.46507 -0.9078,-4.09745 -0.8247,-4.98294 0.5635,-6 1.3926,-1.02029 1.7997,-5.51343 2.8102,-31.01315 0.9222,-23.27085 0.9164,-30.24491 -0.027,-31.75474 -0.9645,-1.54439 -0.9033,-2.6646 0.3032,-5.55213 3.2527,-7.7849 2.3482,-7.90559 -16.9378,-2.26024 -7.72793,2.26209 -19.22577,5.62082 -25.55077,7.46385 -32.97931,9.6098 -57.38088,16.85115 -74,21.96009 -51.54223,15.84475 -62.26311,19.19275 -83.5,26.07604 -12.65,4.10011 -23.675,7.82515 -24.5,8.27788 -0.825,0.45272 -1.72942,2.12501 -2.00982,3.71619 -0.60502,3.43329 -2.35652,3.83415 -2.80973,0.64306 -0.38975,-2.74429 -1.19199,-2.77263 -8.73628,-0.30852 -3.26926,1.06781 -14.04414,4.49077 -23.94414,7.60659 -9.9,3.11581 -18.37111,6.01076 -18.8247,6.43322 -0.45358,0.42245 0.79643,1.07223 2.77779,1.44393 1.98137,0.37171 3.33843,1.1031 3.01568,1.62531 -0.85045,1.37606 -9.14971,1.16568 -11.48234,-0.29108 -1.58107,-0.98739 -2.39179,-0.98739 -3.97286,0 -1.09254,0.6823 -2.62424,1.24055 -3.40377,1.24055 -1.51404,0 -1.95593,5.00265 -3.11126,35.22288 -0.5624,14.71062 -0.56097,14.72334 1.7193,15.27976 1.25519,0.30629 16.23171,0.431 33.28116,0.27713 26.71111,-0.24107 31.01265,-0.48725 31.09768,-1.77977 0.0543,-0.825 0.16723,-2.5125 0.25101,-3.75 0.26707,-3.94525 2.15231,-2.41241 2.15231,1.75 l 0,4 69.75,0.12148 c 38.3625,0.0668 73.97504,0.16526 79.13898,0.21876 l 9.38898,0.0973 0.11102,-6.38206 c 0.0763,-4.38371 0.53313,-6.52381 1.45909,-6.83478 1.06516,-0.35772 1.27503,0.98821 1,6.4133 l -0.34807,6.866 24.5,0.52685 c 13.475,0.28977 27.76254,0.62727 31.75004,0.75 l 7.25,0.22315 0,-2.85078 z M 226.42718,638.91025 c 0.16819,-2.94356 0.7558,-5.23943 1.3058,-5.10193 1.52602,0.3815 1.24767,9.50078 -0.3058,10.0186 -0.98973,0.32991 -1.23177,-0.86013 -1,-4.91667 z m 160.22828,-3.19335 c -0.9114,-2.37506 -0.0288,-7.96965 1.32752,-8.4149 0.87628,-0.28766 1.25,0.94233 1.25,4.11397 0,4.52927 -1.51794,7.06215 -2.57752,4.30093 z m -160.40883,-8.90858 c 0.007,-2.3375 0.285,-5.2625 0.61664,-6.5 1.16457,-4.34561 2.36971,-2.18425 2.36971,4.25 0,5.11111 -0.32051,6.5 -1.5,6.5 -1.10018,0 -1.49636,-1.13282 -1.48635,-4.25 z m 160.98635,-14.19098 c 0,-4.92588 1.14263,-7.79536 2.31964,-5.82533 0.76778,1.28507 -0.51406,11.26631 -1.44687,11.26631 -0.48002,0 -0.87277,-2.44844 -0.87277,-5.44098 z m -159.36052,-2.25287 c -0.35171,-0.35172 -0.63948,-1.88597 -0.63948,-3.40946 0,-2.39415 -0.44095,-2.81249 -3.25,-3.08333 -4.20705,-0.40564 -4.20705,-2.22108 0,-2.62672 2.69173,-0.25953 3.25,-0.73191 3.25,-2.75 0,-1.49924 0.57707,-2.43664 1.5,-2.43664 0.92189,0 1.5,0.93672 1.5,2.43045 0,1.72973 0.62611,2.52258 2.17167,2.75 3.2015,0.47108 3.54438,2.81955 0.41166,2.81955 -2.19218,0 -2.58333,0.4453 -2.58333,2.94098 0,2.93548 -1.15031,4.57537 -2.36052,3.36517 z m -41.10825,-7.25562 c -0.6476,-1.04784 5.24078,-2.43498 8.03604,-1.89309 0.97185,0.18841 1.95429,0.90506 2.1832,1.59256 0.50298,1.51066 -9.29329,1.79874 -10.21924,0.30053 z m 16.01727,0.028 c -0.34666,-0.56092 0.45084,-1.29119 1.77223,-1.62284 3.324,-0.83432 9.17927,-0.16815 9.17927,1.04431 0,1.33967 -10.14971,1.87579 -10.9515,0.57848 z m 37.19241,0.32909 c -1.43581,-1.43585 0.54256,-2.40762 4.90144,-2.40762 3.17202,0 4.40145,0.37362 4.11326,1.25 -0.44143,1.34238 -7.87531,2.29696 -9.0147,1.15757 z m 15,0 c -1.43581,-1.43585 0.54256,-2.40762 4.90144,-2.40762 3.17202,0 4.40145,0.37362 4.11326,1.25 -0.44143,1.34238 -7.87531,2.29696 -9.0147,1.15757 z m 15.97281,-0.0272 c -1.73209,-1.73209 -0.37262,-2.46809 4.03628,-2.18518 2.6125,0.16763 4.75,0.75479 4.75,1.30479 0,1.16378 -7.72849,1.93817 -8.78628,0.88039 z m 14.48992,-0.14584 c -3.14482,-1.04831 -0.59853,-2.23458 4.79636,-2.23458 5.82163,0 8.80885,1.91488 3.25,2.08333 -1.5125,0.0458 -3.67086,0.18888 -4.79636,0.31788 -1.1255,0.129 -2.588,0.054 -3.25,-0.16666 z m 17.04636,-0.01 c -1.2375,-0.20016 -2.25,-0.78263 -2.25,-1.29438 0,-1.25841 13.71995,-1.1926 14.5,0.0695 0.33992,0.55 0.25398,1.03885 -0.19098,1.08632 -3.36816,0.35939 -10.20774,0.43795 -12.05902,0.13851 z m 34.98517,0.0633 c -1.24566,-0.23709 -2.0066,-0.84891 -1.69098,-1.35958 0.77563,-1.2548 9.45581,-1.18917 9.45581,0.0717 0,0.55 -0.6382,1 -1.41821,1 -0.78002,0 -2.01752,0.16182 -2.75,0.35959 -0.73249,0.19777 -2.35096,0.1656 -3.59662,-0.0715 z m 30.17949,-0.42618 c -0.91514,-1.48073 1.7797,-1.98154 7.09143,-1.31788 3.0092,0.37597 5.24624,1.04769 4.9712,1.49271 -0.61249,0.99103 -11.43907,0.83411 -12.06263,-0.17483 z m 19.08534,0.1383 c -0.38973,-0.63059 1.98962,-1 6.44098,-1 4.03935,0 7.05902,0.42778 7.05902,1 0,0.56316 -2.81366,1 -6.44098,1 -3.54254,0 -6.7191,-0.45 -7.05902,-1 z m 19.5,0 c 0,-0.55 2.475,-1 5.5,-1 3.025,0 5.5,0.45 5.5,1 0,0.55 -2.475,1 -5.5,1 -3.025,0 -5.5,-0.45 -5.5,-1 z m 15,-0.0494 c 0,-1.22906 9.84201,-1.01523 10.61194,0.23056 0.27835,0.45035 -1.99546,0.81884 -5.05292,0.81884 -3.21392,0 -5.55902,-0.44271 -5.55902,-1.04943 z m 17.38694,0.32913 c 0.7179,-0.71783 7.7377,-0.45983 8.5297,0.31349 0.2292,0.22372 -1.7583,0.40678 -4.4166,0.40678 -2.6584,0 -4.5092,-0.32414 -4.1131,-0.7203 z m -119.38694,-1.27973 c 0,-0.55 2.22344,-1 4.94098,-1 2.71754,0 5.2191,0.45 5.55902,1 0.38371,0.62086 -1.48962,1 -4.94098,1 -3.05746,0 -5.55902,-0.45 -5.55902,-1 z m 31,0 c 0,-0.55 2.475,-1 5.5,-1 3.025,0 5.5,0.45 5.5,1 0,0.55 -2.475,1 -5.5,1 -3.025,0 -5.5,-0.45 -5.5,-1 z m 37.63948,-3.69385 c -1.52752,-1.52753 -0.10862,-13.71413 1.48227,-12.7309 1.13426,0.70101 1.15005,12.13873 0.0177,12.83855 -0.47329,0.2925 -1.14829,0.24406 -1.5,-0.10765 z m 0.36052,-30.30615 c 0,-4.66667 0.41667,-8 1,-8 0.58333,0 1,3.33333 1,8 0,4.66667 -0.41667,8 -1,8 -0.58333,0 -1,-3.33333 -1,-8 z m 0,-22.5 c 0,-5.11111 0.32051,-6.5 1.5,-6.5 1.17949,0 1.5,1.38889 1.5,6.5 0,5.11111 -0.32051,6.5 -1.5,6.5 -1.17949,0 -1.5,-1.38889 -1.5,-6.5 z m -159.79381,17.24999 c 0.32308,-7.97231 2.15968,-9.26089 2.49427,-1.75 0.24875,5.58413 -0.4205,9 -1.76332,9 -0.63246,0 -0.91228,-2.77542 -0.73095,-7.25 z m 0.26408,-13.96689 c -0.3916,-1.02047 -0.0253,-12.08982 0.44778,-13.53311 0.0451,-0.1375 0.53195,-0.25 1.08195,-0.25 1.31737,0 1.3107,13.68994 -0.007,14.50437 -0.55388,0.34231 -1.23909,0.0177 -1.52267,-0.72126 z m 0.7359,-26.43517 c 0.36993,-9.88057 2.29383,-10.03261 2.29383,-0.18127 0,4.97392 -0.39587,7.29862 -1.29383,7.59794 -1.00109,0.3337 -1.22734,-1.34438 -1,-7.41667 z m 0.79383,-21.34794 c 0,-6.33626 0.30274,-8 1.45571,-8 1.34729,0 1.49584,3.7594 0.60259,15.25 -0.0321,0.4125 -0.5083,0.75 -1.0583,0.75 -0.58333,0 -1,-3.33333 -1,-8 z m 159.20228,0.82937 c 0.18434,-3.82075 0.77374,-6.3278 1.54772,-6.58333 0.91521,-0.30217 1.25,1.35052 1.25,6.17063 0,5.27539 -0.30749,6.58333 -1.54772,6.58333 -1.26191,0 -1.49274,-1.1395 -1.25,-6.17063 z m -158.383,-15.07937 c -0.69674,-2.20658 0.32076,-14.75 1.1965,-14.75 1.16247,0 1.54675,3.43884 1.1454,10.25 -0.31428,5.33354 -1.41242,7.44364 -2.3419,4.5 z m 158.85474,-0.5 c -0.8405,-1.41972 0.82722,-13.74969 1.82598,-13.5 0.99187,0.24797 1.04941,1.06409 0.6875,9.75 -0.1685,4.04404 -1.32123,5.76387 -2.51348,3.75 z m 0.78931,-23.30934 c -0.93611,-1.51465 0.46847,-11.94066 1.60863,-11.94066 1.21332,0 1.21063,11.70731 -0.003,12.45729 -0.512,0.31644 -1.23459,0.084 -1.60577,-0.51663 z m -159.44802,-5.60733 c 0.0164,-6.25364 1.35818,-10.12955 2.48769,-7.18611 1.03584,2.69935 0.0953,12.16319 -1.253,12.60751 -0.90531,0.29835 -1.24578,-1.1966 -1.23469,-5.4214 z m -32.3481,-243.71773 c -0.45803,0.48642 -5.36523,1.15511 -10.90489,1.48598 -12.62568,0.75411 -12.76232,0.90113 -12.76232,13.732 l 0,9.45133 7.18047,10.60754 c 11.3648,16.78897 23.72078,34.11501 28.72011,40.27246 16.46659,20.2812 23.67263,28.83509 24.29149,28.83509 0.38947,0 0.84308,-2.5875 1.00803,-5.75 0.16494,-3.1625 0.74324,-5.75 1.2851,-5.75 0.58946,0 0.8561,3.09324 0.66382,7.70071 l -0.32138,7.7007 4.83618,5.25317 c 2.6599,2.88925 7.53618,8.11021 10.83618,11.60215 l 6,6.34899 8,-6.04403 c 9.25175,-6.98972 16.34986,-10.95116 25.5,-14.23146 5.4606,-1.95761 8.41889,-2.32633 18.5,-2.30585 10.7575,0.0219 12.68114,0.3066 18.57846,2.75 3.61815,1.49909 6.9236,2.72562 7.34543,2.72562 0.42183,0 4.43652,-2.4038 8.92154,-5.34178 4.48501,-2.93798 10.28604,-6.65048 12.89116,-8.25 2.60513,-1.59952 12.32558,-7.85822 21.60101,-13.90822 9.27543,-6.05 18.73557,-12.125 21.02254,-13.5 2.28697,-1.375 7.86651,-4.89281 12.39899,-7.81736 15.28835,-9.86469 33.18441,-20.90175 42.74091,-26.35967 l 9.5,-5.42565 0.7557,-20.94866 c 0.4156,-11.52176 0.5423,-21.51116 0.2814,-22.19866 -0.5404,-1.42388 -27.2945,-1.72286 -53.32965,-0.59597 l -15.11049,0.65403 -0.2985,4.5178 c -0.43746,6.621 -2.7985,6.74382 -2.7985,0.14558 l 0,-5.19523 -23.75,0.65083 c -13.0625,0.35795 -26.45,0.84307 -29.75,1.07804 -3.3,0.23498 -12.75,0.68442 -21,0.99878 -17.63059,0.67179 -62.02534,3.25032 -68.5,3.97862 -2.475,0.27839 -12.15,0.99189 -21.5,1.58555 -28.85564,1.83214 -30.2434,1.87446 -27.62881,0.84257 m 0,0 c 2.60875,-1.02957 42.29122,-4.18773 73.62881,-5.85981 11,-0.58692 22.86562,-1.29754 26.36805,-1.57915 16.62755,-1.33695 95.64198,-3.44792 129.47579,-3.45912 l 37.8438,-0.0125 -0.5551,4.75 c -0.9822,8.40546 -1.5955,26.90436 -2.1302,64.25 -0.5741,40.10698 -0.9426,56.88934 -2.6292,119.76031 -0.6235,23.24317 -0.901,43.99534 -0.6166,46.11593 l 0.5172,3.85562 -71.13688,0.73593 c -93.67717,-0.12996 -80.45089,-0.18749 -180.13686,3.53115 -13.2,0.50384 -29.85,1.04769 -37,1.20856 l -13,0.29248 0.30355,-17 c 0.16695,-9.35 0.49114,-19.925 0.72041,-23.5 0.22928,-3.575 0.88778,-20.675 1.46334,-38 0.57557,-17.325 1.71471,-47.475 2.53143,-67 0.81671,-19.525 1.93686,-46.94025 2.48921,-60.92277 0.55235,-13.98253 1.12406,-25.54256 1.27046,-25.68897 0.76263,-0.76262 26.10562,-1.53389 25.38881,-0.77266 m 34.33279,228.88319 c 4.125,-0.25664 22.8,-0.7483 41.5,-1.09258 50.20618,-3.38827 100.04857,-1.38827 153.25,-1.55612 11.68754,-0.0401 21.25004,-0.40965 21.25004,-0.82125 0,-0.41161 -4.8375,-1.71454 -10.75,-2.89542 -33.58818,-6.70839 -79.47477,-22.35146 -110.25004,-37.58501 -16.75042,-8.29135 -17.99974,-8.98465 -23.06248,-12.79841 -2.73795,-2.0625 -5.37355,-3.75 -5.85689,-3.75 -0.48335,0 -4.99663,-2.9568 -10.02952,-6.57068 l -9.1507,-6.57067 -14.51429,10.32067 c -28.79744,20.47701 -30.38612,21.72189 -30.38612,23.81043 0,2.21498 -1.56917,2.73636 -2.2881,0.76025 -0.52177,-1.43419 0.45638,-1.97557 -13.90127,7.69397 -27.46009,18.49372 -44.81063,30.76605 -44.81063,31.69532 0,0.97773 39.96235,0.5439 59,-0.6405 z m -0.25,-4.0707 c -1.1164,-1.13341 -0.9073,-9.21284 0.25706,-9.93246 0.55389,-0.34231 1.28722,0.10768 1.62964,1 0.78854,2.05491 -0.88,9.95449 -1.8867,8.93246 z m 158.25,-5.42809 c 0,-2.2 0.45,-4 1,-4 0.55,0 1,1.8 1,4 0,2.2 -0.45,4 -1,4 -0.55,0 -1,-1.8 -1,-4 z M 232.68623,421.98266 c -0.92892,-1.50301 0.48576,-11.92435 1.61871,-11.92435 0.51042,0 0.92804,2.925 0.92804,6.5 0,6.02511 -0.93918,8.02547 -2.54675,5.42435 z m -57.23464,15.82565 c 12.77527,-8.64377 31.86934,-29.63998 53.52835,-58.86084 3.91805,-5.28596 11.92883,-14.62535 17.80173,-20.75419 l 10.678,-11.14336 -5.94965,-6.2458 c -23.1927,-24.34718 -46.55032,-53.40662 -67.69014,-84.21395 -4.35221,-6.34252 -8.20004,-11.53186 -8.55075,-11.53186 -0.79699,0 -5.30482,106.0357 -6.52565,153.5 -0.29707,11.55 -0.79098,26.0625 -1.09756,32.25 -0.37086,7.4847 -0.20906,11.25 0.48342,11.25 0.57247,0 3.86748,-1.9125 7.32225,-4.25 z m 59.32983,-72.67161 c -0.94522,-1.52941 0.45249,-14.07839 1.56806,-14.07839 1.13503,0 1.1291,12.06406 -0.007,13.85676 -0.61619,0.97247 -1.0584,1.03525 -1.56125,0.22163 z m 0.6595,-27.82839 c 0.32482,-8.61921 2.21362,-9.98895 2.41316,-1.75 0.14558,6.0112 -0.50501,9.5 -1.77157,9.5 -0.52302,0 -0.8052,-3.40859 -0.64159,-7.75 z m 217.7582,99 c -0.019,-0.4125 -3.731,-3.21393 -8.25,-6.22541 -13.90714,-9.26798 -19.68632,-14.26713 -34.59315,-29.9241 -7.90735,-8.30527 -14.76985,-15.10049 -15.25,-15.10049 -0.48014,0 -0.87299,2.25 -0.87299,5 0,2.75 -0.45,5 -1,5 -0.57566,0 -1,-3.10856 -1,-7.32569 0,-6.60776 -0.2555,-7.56326 -2.60715,-9.75 -1.43393,-1.33337 -6.2583,-6.65722 -10.72083,-11.83077 -4.46252,-5.17356 -11.86502,-12.68611 -16.44999,-16.69457 -8.72005,-7.62359 -22.63099,-17.39897 -24.75977,-17.39897 -0.68267,0 -5.90345,3.06408 -11.60174,6.80907 -5.69828,3.74498 -17.4622,11.46495 -26.14203,17.15547 -8.67983,5.69052 -15.61753,10.83894 -15.41711,11.44093 0.20042,0.60199 3.9271,3.67161 8.28151,6.82137 34.24,24.7675 85.44617,45.74008 145.91715,59.76346 13.6119,3.15665 14.5129,3.2974 14.4661,2.2597 z m -61.96614,-25.58488 c 0,-5.95181 0.67407,-8.66512 2.15268,-8.66512 1.4494,0 0.57885,13.2641 -0.90268,13.75364 -0.89858,0.29691 -1.25,-1.13367 -1.25,-5.08852 z m 72.13494,8.58488 c 0.074,-9.7625 0.2236,-20 0.332,-22.75 0.311,-7.89016 1.4541,-64.55416 2.0981,-104 0.3232,-19.8 0.768,-36.675 0.9885,-37.5 0.2204,-0.825 -0.02,-2.17077 -0.5341,-2.99059 -0.8141,-1.29808 -1.3601,-1.24516 -4.2272,0.4097 -8.2061,4.73652 -34.04716,20.84107 -52.29224,32.58935 -16.79191,10.81256 -33.93192,21.78472 -63.2755,40.50574 -2.59848,1.65781 -4.7245,3.51478 -4.7245,4.12661 0,0.61183 4.22026,3.9353 9.37835,7.38549 10.68603,7.14777 24.43474,20.55612 45.21378,44.0945 15.11365,17.12064 37.00611,38.38835 46.40791,45.08355 6.7404,4.8 17.3517,10.73845 19.25,10.77294 0.9489,0.0172 1.2825,-4.2524 1.3849,-17.72729 z m -70.93063,-51.9203 c 0.18721,-4.22318 0.75428,-6.82183 1.54569,-7.08334 1.38164,-0.45653 1.71346,5.18633 0.625,10.62864 -1.10982,5.54912 -2.475,3.31943 -2.17069,-3.5453 z m 0.71236,-15.74315 c -0.81801,-0.8117 0.27855,-12.58655 1.17215,-12.58655 0.50115,0 0.91118,2.925 0.91118,6.5 0,5.69355 -0.62861,7.53005 -2.08333,6.08655 z m 0.51318,-22.90876 c -0.94896,-2.47296 0.004,-10.00043 1.32015,-10.4334 0.89876,-0.29555 1.25,1.14124 1.25,5.11326 0,5.33785 -1.42859,8.29499 -2.57015,5.32014 z m 0.57015,-25.11877 c 0,-6.04085 1.06808,-8.87591 2.48201,-6.58813 0.87737,1.41962 -0.55825,13.02911 -1.61118,13.02911 -0.47895,0 -0.87083,-2.89844 -0.87083,-6.44098 z m -176.88427,105.89452 15.77848,-10.54646 0.3029,-4.70354 c 0.34472,-5.35304 2.14389,-6.35263 2.61625,-1.45354 0.17235,1.7875 0.51191,3.25 0.7546,3.25 0.24268,0 7.30167,-4.84789 15.68664,-10.7731 8.38497,-5.9252 17.17761,-12.07506 19.53919,-13.66635 2.36159,-1.59129 4.55189,-3.31086 4.86734,-3.82127 0.63363,-1.02523 -15.54842,-17.72172 -17.18616,-17.73252 -1.02377,-0.007 -11.34675,10.28543 -19.27842,19.2209 -3.83975,4.3257 -4.19655,5.19216 -4.19655,10.19098 0,3.00483 -0.45,5.74144 -1,6.08136 -0.59391,0.36706 -1,-0.80328 -1,-2.88197 0,-1.925 -0.39057,-3.74138 -0.86794,-4.03641 -0.47736,-0.29503 -4.25684,4.29091 -8.39883,10.19098 -4.14199,5.90007 -10.61392,14.27525 -14.38206,18.61152 -8.64584,9.94938 -10.70998,12.61588 -9.76595,12.61588 0.41361,0 7.85234,-4.74591 16.53051,-10.54646 z m 83.15853,-56.72966 c 9.47415,-6.22615 20.96979,-13.75655 25.54585,-16.73423 9.45306,-6.15118 9.41954,-6.59378 -0.72629,-9.59107 -16.95184,-5.00792 -31.44063,-1.72011 -51.59382,11.70772 -3.85,2.56521 -8.125,5.87731 -9.5,7.36022 l -2.5,2.6962 3.5,3.07708 c 1.925,1.6924 6.13555,5.51049 9.35679,8.48465 3.44136,3.17742 6.44137,5.18325 7.27425,4.86364 0.77961,-0.29917 9.16906,-5.63806 18.64322,-11.86421 z m -63.59801,-50.45757 c -0.78978,-1.31015 0.5432,-15.26631 1.45812,-15.26631 1.17155,0 1.10935,14.73134 -0.0653,15.45729 -0.512,0.31644 -1.13878,0.23049 -1.39285,-0.19098 z m 158.09658,-17.51631 c -0.70741,-2.0045 0.3509,-9.75 1.33221,-9.75 0.49223,0 0.89496,2.475 0.89496,5.5 0,5.05113 -1.16193,7.26839 -2.22717,4.25 z m -157.33669,-5.05582 c -0.98864,-2.57636 0.008,-12.01853 1.31386,-12.44891 0.91437,-0.30133 1.25,1.33989 1.25,6.11238 0,6.15492 -1.35165,9.4955 -2.56386,6.33653 z m 157.56386,-17.27751 c 0,-5.62223 0.32326,-7.47558 1.25,-7.16667 0.6875,0.22917 1.205,0.94167 1.15,1.58333 -0.055,0.64167 -0.1675,3.86667 -0.25,7.16667 -0.22111,8.84431 -2.15,7.42381 -2.15,-1.58333 z m -156.33333,-1.08334 c -0.36667,-0.36666 -0.66667,-3.51666 -0.66667,-7 0,-5.01427 0.31821,-6.33333 1.52785,-6.33333 1.2852,0 1.4223,1.072 0.86327,6.75 -0.73044,7.41893 -0.76332,7.54446 -1.72445,6.58333 z m 156.76646,-12.64701 c -0.96823,-2.52316 0.009,-11.01082 1.31687,-11.44148 0.90721,-0.29866 1.25,1.24055 1.25,5.61281 0,5.7454 -1.38874,8.89885 -2.56687,5.82867 z m -157.09282,-7.24188 c -0.59213,-1.54304 0.27375,-10.39183 1.09746,-11.21555 1.33686,-1.33685 2.02125,1.31327 1.72341,6.67344 -0.32492,5.84749 -1.55803,7.83302 -2.82087,4.54211 z m 157.65969,-15.94444 c 0,-3.025 0.45,-5.5 1,-5.5 0.55,0 1,2.475 1,5.5 0,3.025 -0.45,5.5 -1,5.5 -0.55,0 -1,-2.475 -1,-5.5 z M 239.7336,222.91347 c -0.91978,-2.38667 -0.17535,-9.35516 0.99938,-9.35516 1.37104,0 1.84976,7.05388 0.62659,9.23276 -0.90261,1.60784 -1.04927,1.61888 -1.62597,0.1224 z"
       inkscape:connector-curvature="0"
       sodipodi:nodetypes="cssssssssssssssssssscsssssccccccsscsccsscssssccccsccssscssssssssssssssssssscsscsscssscsscccsssssssscssscsssscssssssssscssssccscccsscccssccsssscscscccsccccccsssccssssssssssssssccsccccsccsssssssssscssccssssssssssssssccscccsssssscssscssssssssssscscccsscscsscsssssscsscssssssssssscscscsscsssssccsssccssccccscsssssccsccsssssscssssssscsssssssssssssscssssssscscccsssscssssssssssssssscsssscssccsssssssccssssssssscssssssscsssssscsssssssssssssscsssscscccssssscssssssssssssscsssssssssssssss" />
    <text
       xml:space="preserve"
       style="font-size:40px;font-style:normal;font-variant:normal;font-weight:normal;font-stretch:normal;line-height:125%;letter-spacing:0px;word-spacing:0px;fill:#000000;fill-opacity:1;stroke:none;font-family:DejaVu Sans Mono;-inkscape-font-specification:DejaVu Sans Mono"
       x="-106.42857"
       y="378.14285"
       id="text3808"
       sodipodi:linespacing="125%"
       transform="translate(109.35713,187.21931)"><tspan
         sodipodi:role="line"
         id="tspan3810"
         x="-106.42857"
         y="378.14285" /></text>
    <g
       id="g3826">
      <text
         sodipodi:linespacing="125%"
         id="text3812"
         y="670.32996"
         x="255.78572"
         style="font-size:12px;font-style:normal;font-variant:normal;font-weight:normal;font-stretch:normal;line-height:125%;letter-spacing:0px;word-spacing:0px;fill:#000000;fill-opacity:1;stroke:none;font-family:DejaVu Sans Mono;-inkscape-font-specification:DejaVu Sans Mono"
         xml:space="preserve"><tspan
           y="670.32996"
           x="255.78572"
           id="tspan3814"
           sodipodi:role="line">Sem<tspan
   id="tspan3824"
   style="font-size:12px">i</tspan>conductors</tspan></text>
      <text
         sodipodi:linespacing="125%"
         id="text3816"
         y="670.36218"
         x="156.49997"
         style="font-size:12px;font-style:normal;font-variant:normal;font-weight:normal;font-stretch:normal;line-height:125%;letter-spacing:0px;word-spacing:0px;fill:#000000;fill-opacity:1;stroke:none;font-family:DejaVu Sans Mono;-inkscape-font-specification:DejaVu Sans Mono"
         xml:space="preserve"><tspan
           y="670.36218"
           x="156.49997"
           id="tspan3818"
           sodipodi:role="line">Insulators</tspan></text>
      <text
         sodipodi:linespacing="125%"
         id="text3820"
         y="670.36218"
         x="398.64285"
         style="font-size:12px;font-style:normal;font-variant:normal;font-weight:normal;font-stretch:normal;line-height:125%;letter-spacing:0px;word-spacing:0px;fill:#000000;fill-opacity:1;stroke:none;font-family:DejaVu Sans Mono;-inkscape-font-specification:DejaVu Sans Mono"
         xml:space="preserve"><tspan
           y="670.36218"
           x="398.64285"
           id="tspan3822"
           sodipodi:role="line">Metals</tspan></text>
    </g>
    <text
       xml:space="preserve"
       style="font-size:12px;font-style:normal;font-variant:normal;font-weight:normal;font-stretch:normal;line-height:125%;letter-spacing:0px;word-spacing:0px;fill:#000000;fill-opacity:1;stroke:none;font-family:DejaVu Sans Mono;-inkscape-font-specification:DejaVu Sans Mono"
       x="33.57143"
       y="419.57144"
       id="text3851"
       sodipodi:linespacing="125%"
       transform="translate(109.35713,187.21931)"><tspan
         sodipodi:role="line"
         id="tspan3853"></tspan></text>
    <text
       xml:space="preserve"
       style="font-size:20px;font-style:normal;font-variant:normal;font-weight:normal;font-stretch:normal;line-height:125%;letter-spacing:0px;word-spacing:0px;fill:#000000;fill-opacity:1;stroke:none;font-family:DejaVu Sans Mono;-inkscape-font-specification:DejaVu Sans Mono"
       x="465.78571"
       y="564.64789"
       id="text3919"
       sodipodi:linespacing="125%"><tspan
         sodipodi:role="line"
         id="tspan3921"
         x="465.78571"
         y="564.64789">Κ<tspan
   style="font-size:20px;baseline-shift:sub"
   id="tspan3978">e</tspan></tspan></text>
    <text
       xml:space="preserve"
       style="font-size:12px;font-style:normal;font-variant:normal;font-weight:normal;font-stretch:normal;line-height:125%;letter-spacing:0px;word-spacing:0px;fill:#000000;fill-opacity:1;stroke:none;font-family:DejaVu Sans Mono;-inkscape-font-specification:DejaVu Sans Mono"
       x="464.35675"
       y="635.50122"
       id="text3919-6"
       sodipodi:linespacing="125%"><tspan
         sodipodi:role="line"
         id="tspan3921-7"
         x="464.35675"
         y="635.50122">Κ<tspan
   style="font-size:65%;baseline-shift:sub"
   id="tspan3980">L</tspan></tspan></text>
    <text
       xml:space="preserve"
       style="font-size:20px;font-style:normal;font-variant:normal;font-weight:normal;font-stretch:normal;line-height:125%;letter-spacing:0px;word-spacing:0px;fill:#000000;fill-opacity:1;stroke:none;font-family:DejaVu Sans Mono;-inkscape-font-specification:DejaVu Sans Mono"
       x="210.37238"
       y="277.13797"
       id="text3960"
       sodipodi:linespacing="125%"><tspan
         sodipodi:role="line"
         id="tspan3962"
         x="210.37238"
         y="277.13797">S</tspan></text>
    <text
       xml:space="preserve"
       style="font-size:20px;font-style:normal;font-variant:normal;font-weight:normal;font-stretch:normal;line-height:125%;letter-spacing:0px;word-spacing:0px;fill:#000000;fill-opacity:1;stroke:none;font-family:DejaVu Sans Mono;-inkscape-font-specification:DejaVu Sans Mono"
       x="296.09644"
       y="316.81613"
       id="text3968"
       sodipodi:linespacing="125%"><tspan
         sodipodi:role="line"
         id="tspan3970"
         x="296.09644"
         y="316.81613">S<tspan
   style="font-size:65.00091553%;baseline-shift:super"
   id="tspan3984">2</tspan>σ</tspan></text>
    <text
       xml:space="preserve"
       style="font-size:20px;font-style:normal;font-variant:normal;font-weight:normal;font-stretch:normal;line-height:125%;letter-spacing:0px;word-spacing:0px;fill:#000000;fill-opacity:1;stroke:none;font-family:DejaVu Sans Mono;-inkscape-font-specification:DejaVu Sans Mono"
       x="424.53046"
       y="260.25012"
       id="text3974"
       sodipodi:linespacing="125%"><tspan
         sodipodi:role="line"
         id="tspan3976"
         x="424.53046"
         y="260.25012">σ</tspan></text>
  </g>
</svg>
