<?xml version="1.0" encoding="UTF-8" standalone="no"?>
<!-- Created with Inkscape (http://www.inkscape.org/) -->

<svg
   xmlns:dc="http://purl.org/dc/elements/1.1/"
   xmlns:cc="http://creativecommons.org/ns#"
   xmlns:rdf="http://www.w3.org/1999/02/22-rdf-syntax-ns#"
   xmlns:svg="http://www.w3.org/2000/svg"
   xmlns="http://www.w3.org/2000/svg"
   xmlns:sodipodi="http://sodipodi.sourceforge.net/DTD/sodipodi-0.dtd"
   xmlns:inkscape="http://www.inkscape.org/namespaces/inkscape"
   width="239.0677"
   height="241.9375"
   id="svg2"
   sodipodi:version="0.32"
   inkscape:version="0.48.4 r9939"
   sodipodi:docname="thermogen.svg"
   inkscape:output_extension="org.inkscape.output.svg.inkscape"
   version="1.0">
  <defs
     id="defs4" />
  <sodipodi:namedview
     id="base"
     pagecolor="#ffffff"
     bordercolor="#666666"
     borderopacity="1.0"
     gridtolerance="10000"
     guidetolerance="10"
     objecttolerance="10"
     inkscape:pageopacity="0.0"
     inkscape:pageshadow="2"
     inkscape:zoom="2.8284271"
     inkscape:cx="214.97188"
     inkscape:cy="132.6267"
     inkscape:document-units="px"
     inkscape:current-layer="layer1"
     inkscape:window-width="1920"
     inkscape:window-height="1058"
     inkscape:window-x="-8"
     inkscape:window-y="-8"
     showguides="false"
     showgrid="true"
     width="277px"
     height="289px"
     inkscape:grid-points="true"
     fit-margin-top="0"
     fit-margin-left="0"
     fit-margin-right="0"
     fit-margin-bottom="0"
     inkscape:window-maximized="1">
    <inkscape:grid
       id="GridFromPre046Settings"
       type="xygrid"
       originx="-18.9375px"
       originy="-24.0625px"
       spacingx="1px"
       spacingy="1px"
       color="#3f3fff"
       empcolor="#3f3fff"
       opacity="0.15"
       empopacity="0.38"
       empspacing="2"
       visible="true"
       enabled="true"
       snapvisiblegridlinesonly="true" />
  </sodipodi:namedview>
  <metadata
     id="metadata7">
    <rdf:RDF>
      <cc:Work
         rdf:about="">
        <dc:format>image/svg+xml</dc:format>
        <dc:type
           rdf:resource="http://purl.org/dc/dcmitype/StillImage" />
        <dc:title></dc:title>
      </cc:Work>
    </rdf:RDF>
  </metadata>
  <g
     inkscape:label="Layer 1"
     inkscape:groupmode="layer"
     id="layer1"
     transform="translate(-18.9375,-23)">
    <rect
       style="fill:#0000ff;fill-rule:evenodd;stroke:#000000;stroke-width:1px;stroke-linecap:butt;stroke-linejoin:miter;stroke-opacity:1"
       id="rect2160"
       width="180"
       height="37"
       x="47.5"
       y="178.5" />
    <g
       id="g4811">
      <path
         sodipodi:type="star"
         style="fill:#ffffff;fill-opacity:1"
         id="path10150"
         sodipodi:sides="3"
         sodipodi:cx="139.40105"
         sodipodi:cy="226.0574"
         sodipodi:r1="357.59399"
         sodipodi:r2="178.797"
         sodipodi:arg1="0"
         sodipodi:arg2="1.0400263"
         inkscape:flatsided="true"
         inkscape:rounded="0"
         inkscape:randomized="0"
         d="m 496.99504,226.0574 -536.39099,309.68549 0,-619.37097 z"
         transform="matrix(0,0.01491449,-0.01291633,0,256.92503,214.87003)" />
      <path
         transform="matrix(0,-0.01491449,-0.01291633,0,25.857332,221.69489)"
         d="m 496.99504,226.0574 -536.39099,309.68549 0,-619.37097 z"
         inkscape:randomized="0"
         inkscape:rounded="0"
         inkscape:flatsided="true"
         sodipodi:arg2="1.0400263"
         sodipodi:arg1="0"
         sodipodi:r2="178.797"
         sodipodi:r1="357.59399"
         sodipodi:cy="226.0574"
         sodipodi:cx="139.40105"
         sodipodi:sides="3"
         id="path10152"
         style="fill:#ffffff;fill-opacity:1"
         sodipodi:type="star" />
      <path
         sodipodi:nodetypes="cccccccccccccc"
         inkscape:connector-curvature="0"
         id="path4805"
         d="m 48,197 -25,0 0,52 93,0 4,-14 4,28 7,-28 6,28 6,-28 5,28 4.94447,-14 101.05553,0 0,-56 -27,0"
         style="fill:none;stroke:#ffffff;stroke-width:1px;stroke-linecap:butt;stroke-linejoin:miter;stroke-opacity:1" />
    </g>
    <rect
       style="fill:#ff0000;fill-opacity:1;stroke:#000000;stroke-width:1.2553165;stroke-opacity:1"
       id="rect6083"
       width="131.74467"
       height="36.744682"
       x="71.627663"
       y="23.627659" />
    <rect
       style="fill:#cfcfcf;fill-opacity:1;stroke:#000000;stroke-width:0.97585875;stroke-opacity:1"
       id="rect6085"
       width="132.02414"
       height="23.024141"
       x="71.48793"
       y="60.487926" />
    <path
       sodipodi:type="star"
       style="fill:#000000;fill-opacity:1"
       id="path8025"
       sodipodi:sides="3"
       sodipodi:cx="139.40105"
       sodipodi:cy="226.0574"
       sodipodi:r1="357.59399"
       sodipodi:r2="178.797"
       sodipodi:arg1="0"
       sodipodi:arg2="1.0400263"
       inkscape:flatsided="true"
       inkscape:rounded="0"
       inkscape:randomized="0"
       d="m 496.99504,226.0574 -536.39099,309.68549 0,-619.37097 z"
       transform="matrix(0.01491449,0,0,0.01291633,170.58757,69.580168)" />
    <path
       style="fill:none;stroke:#000000;stroke-width:1.03764427px;stroke-linecap:butt;stroke-linejoin:miter;stroke-opacity:1"
       d="m 170.98136,72.481 c -25.15425,0 -50.30848,0 -75.462716,0"
       id="path8027"
       inkscape:connector-curvature="0" />
    <text
       xml:space="preserve"
       style="font-size:16px;font-style:normal;font-weight:bold;fill:#ffffff;fill-opacity:1;stroke:none;font-family:Arial"
       x="87.55957"
       y="48.437988"
       id="text8029"><tspan
         sodipodi:role="line"
         id="tspan8031"
         x="87.55957"
         y="48.437988"
         style="font-size:18px;fill:#ffffff">Heat Source</tspan></text>
    <rect
       style="font-size:20px;fill:#00ffff;fill-opacity:1;stroke:#000000;stroke-opacity:1"
       id="rect8033"
       width="62"
       height="71"
       x="71.5"
       y="83.5" />
    <path
       sodipodi:type="arc"
       style="fill:#ffffff;fill-opacity:1;stroke:#000000;stroke-opacity:1"
       id="path8035"
       sodipodi:cx="91"
       sodipodi:cy="104"
       sodipodi:rx="7"
       sodipodi:ry="7"
       d="m 98,104 c 0,3.86599 -3.134007,7 -7,7 -3.865993,0 -7,-3.13401 -7,-7 0,-3.86599 3.134007,-7 7,-7 3.865993,0 7,3.13401 7,7 z"
       transform="matrix(0.9333334,0,0,0.9333333,5.0666611,2.933337)" />
    <path
       style="fill:none;stroke:#000000;stroke-width:1.09544516px;stroke-linecap:butt;stroke-linejoin:miter;stroke-opacity:1"
       d="m 87.600723,99.999777 c 1.6,0 3.2,0 4.8,0"
       id="path8037"
       inkscape:connector-curvature="0" />
    <path
       transform="matrix(0.9333334,0,0,0.9333333,29.066661,27.933337)"
       d="m 98,104 c 0,3.86599 -3.134007,7 -7,7 -3.865993,0 -7,-3.13401 -7,-7 0,-3.86599 3.134007,-7 7,-7 3.865993,0 7,3.13401 7,7 z"
       sodipodi:ry="7"
       sodipodi:rx="7"
       sodipodi:cy="104"
       sodipodi:cx="91"
       id="path8045"
       style="fill:#ffffff;fill-opacity:1;stroke:#000000;stroke-opacity:1"
       sodipodi:type="arc" />
    <path
       id="path8047"
       d="m 111.60072,124.99978 c 1.6,0 3.2,0 4.8,0"
       style="fill:none;stroke:#000000;stroke-width:1.09544516px;stroke-linecap:butt;stroke-linejoin:miter;stroke-opacity:1"
       inkscape:connector-curvature="0" />
    <path
       transform="matrix(0,0.01491449,-0.01291633,0,92.919832,123.58757)"
       d="m 496.99504,226.0574 -536.39099,309.68549 0,-619.37097 z"
       inkscape:randomized="0"
       inkscape:rounded="0"
       inkscape:flatsided="true"
       sodipodi:arg2="1.0400263"
       sodipodi:arg1="0"
       sodipodi:r2="178.797"
       sodipodi:r1="357.59399"
       sodipodi:cy="226.0574"
       sodipodi:cx="139.40105"
       sodipodi:sides="3"
       id="path8051"
       style="fill:#000000;fill-opacity:1"
       sodipodi:type="star" />
    <path
       style="fill:none;stroke:#000000;stroke-width:1.48511052px;stroke-linecap:butt;stroke-linejoin:miter;stroke-opacity:1"
       d="m 89.975079,107.02382 c 0,5.38865 0,10.77729 0,16.16594"
       id="path8053"
       inkscape:connector-curvature="0" />
    <path
       sodipodi:type="star"
       style="fill:#000000;fill-opacity:1"
       id="path8055"
       sodipodi:sides="3"
       sodipodi:cx="139.40105"
       sodipodi:cy="226.0574"
       sodipodi:r1="357.59399"
       sodipodi:r2="178.797"
       sodipodi:arg1="0"
       sodipodi:arg2="1.0400263"
       inkscape:flatsided="true"
       inkscape:rounded="0"
       inkscape:randomized="0"
       d="m 496.99504,226.0574 -536.39099,309.68549 0,-619.37097 z"
       transform="matrix(0,0.01491449,-0.01291633,0,116.91983,136.58757)" />
    <path
       id="path8057"
       d="m 114.05811,131.99273 c 0,2.33576 0,4.67151 0,7.00727"
       style="fill:none;stroke:#000000;stroke-width:1.45021975px;stroke-linecap:butt;stroke-linejoin:miter;stroke-opacity:1"
       inkscape:connector-curvature="0" />
    <rect
       y="83.5"
       x="141.5"
       height="71"
       width="62"
       id="rect8063"
       style="font-size:20px;fill:#ffd742;fill-opacity:1;stroke:#000000;stroke-opacity:1" />
    <path
       sodipodi:type="star"
       style="fill:#000000;fill-opacity:1"
       id="path8077"
       sodipodi:sides="3"
       sodipodi:cx="139.40105"
       sodipodi:cy="226.0574"
       sodipodi:r1="357.59399"
       sodipodi:r2="178.797"
       sodipodi:arg1="0"
       sodipodi:arg2="1.0400263"
       inkscape:flatsided="true"
       inkscape:rounded="0"
       inkscape:randomized="0"
       d="m 496.99504,226.0574 -536.39099,309.68549 0,-619.37097 z"
       transform="matrix(0,0.01491449,-0.01291633,0,186.91983,123.58757)" />
    <path
       id="path8079"
       d="m 183.97508,107.02382 c 0,5.38865 0,10.77729 0,16.16594"
       style="fill:none;stroke:#000000;stroke-width:1.48511052px;stroke-linecap:butt;stroke-linejoin:miter;stroke-opacity:1"
       inkscape:connector-curvature="0" />
    <path
       transform="matrix(0,0.01491449,-0.01291633,0,162.91983,136.58757)"
       d="m 496.99504,226.0574 -536.39099,309.68549 0,-619.37097 z"
       inkscape:randomized="0"
       inkscape:rounded="0"
       inkscape:flatsided="true"
       sodipodi:arg2="1.0400263"
       sodipodi:arg1="0"
       sodipodi:r2="178.797"
       sodipodi:r1="357.59399"
       sodipodi:cy="226.0574"
       sodipodi:cx="139.40105"
       sodipodi:sides="3"
       id="path8081"
       style="fill:#000000;fill-opacity:1"
       sodipodi:type="star" />
    <path
       style="fill:none;stroke:#000000;stroke-width:1.45021975px;stroke-linecap:butt;stroke-linejoin:miter;stroke-opacity:1"
       d="m 160.05811,131.99273 c 0,2.33576 0,4.67151 0,7.00727"
       id="path8083"
       inkscape:connector-curvature="0" />
    <g
       id="g9082">
      <path
         transform="matrix(0.9333334,0,0,0.9333333,75.066661,27.933337)"
         d="m 98,104 c 0,3.86599 -3.134007,7 -7,7 -3.865993,0 -7,-3.13401 -7,-7 0,-3.86599 3.134007,-7 7,-7 3.865993,0 7,3.13401 7,7 z"
         sodipodi:ry="7"
         sodipodi:rx="7"
         sodipodi:cy="104"
         sodipodi:cx="91"
         id="path8073"
         style="fill:#ffffff;fill-opacity:1;stroke:#000000;stroke-opacity:1"
         sodipodi:type="arc" />
      <g
         transform="translate(-0.1974974,-0.2025126)"
         id="g9078">
        <path
           style="fill:none;stroke:#000000;stroke-width:1.09544516px;stroke-linecap:butt;stroke-linejoin:miter;stroke-opacity:1"
           d="m 157.79772,125.20229 c 1.6,0 3.2,0 4.8,0"
           id="path8075"
           inkscape:connector-curvature="0" />
        <path
           id="path9064"
           d="m 160.19772,122.80229 c 0,1.6 0,3.2 0,4.8"
           style="fill:none;stroke:#000000;stroke-width:1.09544516px;stroke-linecap:butt;stroke-linejoin:miter;stroke-opacity:1"
           inkscape:connector-curvature="0" />
      </g>
    </g>
    <g
       id="g9098"
       transform="translate(23.999999,-25)">
      <path
         sodipodi:type="arc"
         style="fill:#ffffff;fill-opacity:1;stroke:#000000;stroke-opacity:1"
         id="path9100"
         sodipodi:cx="91"
         sodipodi:cy="104"
         sodipodi:rx="7"
         sodipodi:ry="7"
         d="m 98,104 c 0,3.86599 -3.134007,7 -7,7 -3.865993,0 -7,-3.13401 -7,-7 0,-3.86599 3.134007,-7 7,-7 3.865993,0 7,3.13401 7,7 z"
         transform="matrix(0.9333334,0,0,0.9333333,75.066661,27.933337)" />
      <g
         id="g9102"
         transform="translate(-0.1974974,-0.2025126)">
        <path
           id="path9104"
           d="m 157.79772,125.20229 c 1.6,0 3.2,0 4.8,0"
           style="fill:none;stroke:#000000;stroke-width:1.09544516px;stroke-linecap:butt;stroke-linejoin:miter;stroke-opacity:1"
           inkscape:connector-curvature="0" />
        <path
           style="fill:none;stroke:#000000;stroke-width:1.09544516px;stroke-linecap:butt;stroke-linejoin:miter;stroke-opacity:1"
           d="m 160.19772,122.80229 c 0,1.6 0,3.2 0,4.8"
           id="path9106"
           inkscape:connector-curvature="0" />
      </g>
    </g>
    <rect
       y="154.86786"
       x="59.367851"
       height="23.264296"
       width="74.264297"
       id="rect9108"
       style="fill:#cfcfcf;fill-opacity:1;stroke:#000000;stroke-width:0.73570478;stroke-opacity:1" />
    <path
       transform="matrix(0.01491449,0,0,0.01291633,112.58757,163.58017)"
       d="m 496.99504,226.0574 -536.39099,309.68549 0,-619.37097 z"
       inkscape:randomized="0"
       inkscape:rounded="0"
       inkscape:flatsided="true"
       sodipodi:arg2="1.0400263"
       sodipodi:arg1="0"
       sodipodi:r2="178.797"
       sodipodi:r1="357.59399"
       sodipodi:cy="226.0574"
       sodipodi:cx="139.40105"
       sodipodi:sides="3"
       id="path9110"
       style="fill:#000000;fill-opacity:1"
       sodipodi:type="star" />
    <path
       id="path9112"
       d="m 113.57359,166.50001 c -13.72458,0 -27.449146,0 -41.173712,0"
       style="fill:none;stroke:#000000;stroke-width:1.06515443px;stroke-linecap:butt;stroke-linejoin:miter;stroke-opacity:1"
       inkscape:connector-curvature="0" />
    <rect
       style="fill:#cfcfcf;fill-opacity:1;stroke:#000000;stroke-width:0.73570478;stroke-opacity:1"
       id="rect9121"
       width="74.264297"
       height="23.264296"
       x="141.36784"
       y="154.86786" />
    <path
       sodipodi:type="star"
       style="fill:#000000;fill-opacity:1"
       id="path9123"
       sodipodi:sides="3"
       sodipodi:cx="139.40105"
       sodipodi:cy="226.0574"
       sodipodi:r1="357.59399"
       sodipodi:r2="178.797"
       sodipodi:arg1="0"
       sodipodi:arg2="1.0400263"
       inkscape:flatsided="true"
       inkscape:rounded="0"
       inkscape:randomized="0"
       d="m 496.99504,226.0574 -536.39099,309.68549 0,-619.37097 z"
       transform="matrix(0.01491449,0,0,0.01291633,194.58757,163.58017)" />
    <path
       inkscape:connector-curvature="0"
       style="fill:none;stroke:#000000;stroke-width:1.06515443px;stroke-linecap:butt;stroke-linejoin:miter;stroke-opacity:1"
       d="m 195.57359,166.50001 c -13.72458,0 -27.44915,0 -41.17371,0"
       id="path9125" />
    <text
       xml:space="preserve"
       style="font-size:18px;font-style:normal;font-weight:bold;fill:#ffffff;fill-opacity:1;stroke:none;font-family:Arial"
       x="96"
       y="203.43799"
       id="text9127"><tspan
         sodipodi:role="line"
         id="tspan9129"
         x="96"
         y="203.43799">Cool Side</tspan></text>
    <!-- Resistor path -->
  </g>
</svg>
