<?xml version="1.0" encoding="UTF-8" standalone="no"?>
<!-- Created with Inkscape (http://www.inkscape.org/) -->

<svg
   xmlns:dc="http://purl.org/dc/elements/1.1/"
   xmlns:cc="http://creativecommons.org/ns#"
   xmlns:rdf="http://www.w3.org/1999/02/22-rdf-syntax-ns#"
   xmlns:svg="http://www.w3.org/2000/svg"
   xmlns="http://www.w3.org/2000/svg"
   xmlns:sodipodi="http://sodipodi.sourceforge.net/DTD/sodipodi-0.dtd"
   xmlns:inkscape="http://www.inkscape.org/namespaces/inkscape"
   width="744.09448819"
   height="1052.3622047"
   id="svg2"
   version="1.1"
   inkscape:version="0.48.3.1 r9886"
   sodipodi:docname="New document 1">
  <defs
     id="defs4" />
  <sodipodi:namedview
     id="base"
     pagecolor="#ffffff"
     bordercolor="#666666"
     borderopacity="1.0"
     inkscape:pageopacity="0.0"
     inkscape:pageshadow="2"
     inkscape:zoom="1.4"
     inkscape:cx="409.66705"
     inkscape:cy="611.50268"
     inkscape:document-units="px"
     inkscape:current-layer="layer1"
     showgrid="false"
     showguides="true"
     inkscape:guide-bbox="true"
     inkscape:window-width="1155"
     inkscape:window-height="1003"
     inkscape:window-x="962"
     inkscape:window-y="85"
     inkscape:window-maximized="0" />
  <metadata
     id="metadata7">
    <rdf:RDF>
      <cc:Work
         rdf:about="">
        <dc:format>image/svg+xml</dc:format>
        <dc:type
           rdf:resource="http://purl.org/dc/dcmitype/StillImage" />
        <dc:title></dc:title>
      </cc:Work>
    </rdf:RDF>
  </metadata>
  <g
     inkscape:label="Layer 1"
     inkscape:groupmode="layer"
     id="layer1">
    <rect
       style="fill:#0000ff;fill-rule:evenodd;stroke:#000000;stroke-width:1.17944407px;stroke-linecap:butt;stroke-linejoin:miter;stroke-opacity:1"
       id="rect3019"
       width="198.82056"
       height="198.82056"
       x="167.94685"
       y="349.88046" />
    <path
       transform="matrix(2.4911033,0,0,2.4911032,-276.08034,-791.84962)"
       sodipodi:type="arc"
       style="fill:#ff0000;fill-rule:evenodd;stroke:#000000;stroke-width:1px;stroke-linecap:butt;stroke-linejoin:miter;stroke-opacity:1"
       id="path2985-6-9"
       sodipodi:cx="179.64285"
       sodipodi:cy="451.29074"
       sodipodi:rx="39.642857"
       sodipodi:ry="39.642857"
       d="m 219.28571,451.29074 a 39.642857,39.642857 0 1 1 -79.28571,0 39.642857,39.642857 0 1 1 79.28571,0 z" />
    <path
       transform="matrix(2.4911033,0,0,2.4911032,-76.794618,-781.13534)"
       sodipodi:type="arc"
       style="fill:#ff0000;fill-rule:evenodd;stroke:#000000;stroke-width:1px;stroke-linecap:butt;stroke-linejoin:miter;stroke-opacity:1"
       id="path2985-6-9-3"
       sodipodi:cx="179.64285"
       sodipodi:cy="451.29074"
       sodipodi:rx="39.642857"
       sodipodi:ry="39.642857"
       d="m 219.28571,451.29074 a 39.642857,39.642857 0 1 1 -79.28571,0 39.642857,39.642857 0 1 1 79.28571,0 z" />
    <path
       transform="matrix(2.4911033,0,0,2.4911032,-277.50891,-592.56392)"
       sodipodi:type="arc"
       style="fill:#ff0000;fill-rule:evenodd;stroke:#000000;stroke-width:1px;stroke-linecap:butt;stroke-linejoin:miter;stroke-opacity:1"
       id="path2985-6-9-2"
       sodipodi:cx="179.64285"
       sodipodi:cy="451.29074"
       sodipodi:rx="39.642857"
       sodipodi:ry="39.642857"
       d="m 219.28571,451.29074 a 39.642857,39.642857 0 1 1 -79.28571,0 39.642857,39.642857 0 1 1 79.28571,0 z" />
    <path
       transform="matrix(2.4911033,0,0,2.4911032,-81.080332,-582.56391)"
       sodipodi:type="arc"
       style="fill:#ff0000;fill-rule:evenodd;stroke:#000000;stroke-width:1px;stroke-linecap:butt;stroke-linejoin:miter;stroke-opacity:1"
       id="path2985-6-9-8"
       sodipodi:cx="179.64285"
       sodipodi:cy="451.29074"
       sodipodi:rx="39.642857"
       sodipodi:ry="39.642857"
       d="m 219.28571,451.29074 a 39.642857,39.642857 0 1 1 -79.28571,0 39.642857,39.642857 0 1 1 79.28571,0 z" />
    <rect
       style="fill:#0000ff;fill-rule:evenodd;stroke:#000000;stroke-width:1.17944407px;stroke-linecap:butt;stroke-linejoin:miter;stroke-opacity:1"
       id="rect3019-3"
       width="198.82056"
       height="198.82056"
       x="532.01831"
       y="357.9519" />
    <path
       transform="matrix(2.4911033,0,0,2.4911032,183.91967,-666.13534)"
       sodipodi:type="arc"
       style="fill:#ff0000;fill-rule:evenodd;stroke:#000000;stroke-width:1px;stroke-linecap:butt;stroke-linejoin:miter;stroke-opacity:1"
       id="path2985-6-9-3-7"
       sodipodi:cx="179.64285"
       sodipodi:cy="451.29074"
       sodipodi:rx="39.642857"
       sodipodi:ry="39.642857"
       d="m 219.28571,451.29074 a 39.642857,39.642857 0 1 1 -79.28571,0 39.642857,39.642857 0 1 1 79.28571,0 z" />
  </g>
</svg>
