<?xml version="1.0" encoding="UTF-8" standalone="no"?>
<!-- Created with Inkscape (http://www.inkscape.org/) -->

<svg
   xmlns:dc="http://purl.org/dc/elements/1.1/"
   xmlns:cc="http://creativecommons.org/ns#"
   xmlns:rdf="http://www.w3.org/1999/02/22-rdf-syntax-ns#"
   xmlns:svg="http://www.w3.org/2000/svg"
   xmlns="http://www.w3.org/2000/svg"
   xmlns:sodipodi="http://sodipodi.sourceforge.net/DTD/sodipodi-0.dtd"
   xmlns:inkscape="http://www.inkscape.org/namespaces/inkscape"
   id="svg2"
   version="1.1"
   inkscape:version="0.48.3.1 r9886"
   width="680.24994"
   height="261.09125"
   xml:space="preserve"
   sodipodi:docname="white_logo_vector.eps"><metadata
     id="metadata8"><rdf:RDF><cc:Work
         rdf:about=""><dc:format>image/svg+xml</dc:format><dc:type
           rdf:resource="http://purl.org/dc/dcmitype/StillImage" /><dc:title></dc:title></cc:Work></rdf:RDF></metadata><defs
     id="defs6"><clipPath
       clipPathUnits="userSpaceOnUse"
       id="clipPath18"><path
         d="m 0,0 5442,0 0,2088.73 -5442,0 L 0,0 z"
         id="path20"
         inkscape:connector-curvature="0" /></clipPath></defs><sodipodi:namedview
     pagecolor="#ffffff"
     bordercolor="#666666"
     borderopacity="1"
     objecttolerance="10"
     gridtolerance="10"
     guidetolerance="10"
     inkscape:pageopacity="0"
     inkscape:pageshadow="2"
     inkscape:window-width="1366"
     inkscape:window-height="719"
     id="namedview4"
     showgrid="false"
     fit-margin-top="0"
     fit-margin-left="0"
     fit-margin-right="0"
     fit-margin-bottom="0"
     inkscape:zoom="0.52626742"
     inkscape:cx="337.62463"
     inkscape:cy="130.54375"
     inkscape:window-x="0"
     inkscape:window-y="29"
     inkscape:window-maximized="1"
     inkscape:current-layer="g10" /><g
     id="g10"
     inkscape:groupmode="layer"
     inkscape:label="ink_ext_XXXXXX"
     transform="matrix(1.25,0,0,-1.25,-5.946416e-5,261.09125)"><g
       id="g12"
       transform="scale(0.1,0.1)"><g
         id="g14"><g
           id="g16"
           clip-path="url(#clipPath18)"><path
             d="m 4814.57,1439.5 0,-194 c 0,-22 2.01,-28 18,-30 26,-2 50,-2 92,-2 66.01,0 152.01,36 152.01,150 0,120 -80,226 -220,226 -28.01,0 -32,-6 -36,-20 -4,-12 -6.01,-38.01 -6.01,-130 l 0,0 z m -123.99,-382 0,313.99 c 0,72.01 -6,120 -8.01,154.01 -4,25.99 -10,35.99 -15.99,44 -14.01,14 -58.01,20 -96,24 -26.01,2 -24,22 0,26 27.99,4 190,26 317.99,26 300,8 314,-168 314,-226 0,-84 -48,-148.01 -84,-170 l -40,-26 c -10,-6 -13.99,-12.01 -6,-30 67.99,-142 166,-267.988 236,-324 66,-53.988 117.99,-67.988 126,-70 8,-2 10,-13.988 4,-16 -8.01,-4 -42.01,-11.988 -84,-11.988 -74.01,0 -150,24 -196,64 -74,70 -126,163.988 -186,279.978 -18,38.01 -31.99,42.01 -54,40.01 -27.99,-2 -60,-6 -91.99,-6 -10,0 -12.01,-4.01 -12.01,-42 l 0,-84 c 0,-64 2.01,-86 6.01,-110 11.99,-64 26,-81.988 113.99,-106 22.01,-5.988 22.01,-25.988 -2,-25.988 -54,0 -111.99,5.988 -170,5.988 -60,0 -121.99,-5.988 -177.99,-5.988 -22.01,0 -26.01,20 -4,25.988 76,20 94,36 101.99,94.012 2.01,27.988 8.01,77.988 8.01,155.988 l 0,0 z m -759.96,48 0,214 c 0,120 0,158 -8.01,208 -7.99,52 -51.99,73.99 -101.99,86 -22.01,6 -20,27.99 1.99,27.99 66,0 112.01,-5.99 174.01,-5.99 l 205.99,0 c 106,0 174.01,2 192.01,8 10,6 17.99,7.99 20,7.99 3.99,0 9.98,-3.99 7.99,-13.99 -10,-48 -14,-122 -10,-172 2.01,-26 -24,-30 -27.99,-6 -8,44 -38,88 -76.01,98 -40,12 -76,13.99 -147.99,13.99 l -52.01,0 c -41.99,0 -46,-3.99 -50,-35.99 -1.99,-18 -3.99,-72 -3.99,-134.01 l 0,-107.99 c 0,-24 0,-22.01 42,-26 l 41.99,0 c 112.01,0 158.01,6 176.01,12 23.99,8 40,26 46,36 6,10 20,5.99 17.99,-8 -3.99,-32 -10,-82 -10,-200 0,-16.01 -21.99,-18 -23.99,-2 -2.01,12 -8,30 -20,52 -20,33.99 -70,46 -174,46 l -60,0 c -30,0 -36,-2.01 -36,-26 l 0,-94 c 0,-140 3.99,-190 17.99,-210 14.01,-21.988 58.01,-26 138.01,-26 47.99,0 96,2 126,8.012 30,3.988 54,17.988 74,37.988 15.98,20 27.99,50 35.98,74 6.01,16 26.01,14.012 26.01,-1.988 0,-20 -8.01,-96.012 -20,-156.012 -6.01,-26 -18.01,-27.988 -71.99,-27.988 l -414,5.988 c -58.01,0 -110,-5.988 -184.01,-5.988 -21.99,0 -21.99,24 -5.99,25.988 68,14.012 130,26 144,82 4,20 10,62.012 10,216 l 0,0 z m -760.23,530 276.01,0 143.99,2 c 36.01,2 74,13.99 100,32 12.01,8 26.01,1.99 22.01,-12 -22.01,-54 -22.01,-106.01 -26,-180 -2.01,-18 -20,-22 -28.01,-4 -14,36 -28,70 -78,84 -33.99,8 -80,13.99 -173.99,13.99 -26.01,0 -28.01,-5.99 -30,-21.99 -4,-18.01 -8.01,-88.01 -8.01,-220 l 0,-190 c 0,-133.99 0,-183.988 6,-232 10,-65.988 44,-74 122.01,-100 20,-5.988 17.99,-25.988 -8.01,-25.988 -68,0 -120,5.988 -198,5.988 -60,0 -103.99,-5.988 -185.98,-5.988 -24,0 -24,20 -4,25.988 69.98,20 125.99,28.012 131.99,82 4,28 11.99,90 11.99,240 l 0,198 c 0,142 -4,188 -4,203.99 0,34.01 -3.99,40 -30,40 -40,0 -169.98,2.01 -215.98,-21.99 -30,-18.01 -50,-58.01 -58.01,-84 -5.99,-20 -27.99,-16 -27.99,5.99 0,18.01 12,98.01 12,182.01 0,24 14,26 25.99,14 12.01,-12 28.01,-18 50,-24 20,-6 60,-8 173.99,-8 l 0,0 z m -873.94,-530 0,214 c 0,120 0,158 -8,208 -8.01,52 -52,73.99 -102,86 -22.01,6 -20,27.99 2,27.99 65.99,0 111.99,-5.99 174,-5.99 l 205.99,0 c 105.99,0 174,2 192,8 10,6 17.99,7.99 20,7.99 3.99,0 10,-3.99 7.99,-13.99 -10,-48 -14,-122 -10,-172 2.01,-26 -24,-30 -27.99,-6 -8,44 -38,88 -76.01,98 -40,12 -75.99,13.99 -147.99,13.99 l -52.01,0 c -41.98,0 -45.98,-3.99 -49.99,-35.99 -1.99,-18 -4,-72 -4,-134.01 l 0,-107.99 c 0,-24 0,-22.01 42,-26 l 41.99,0 c 112.01,0 158.01,6 176,12 24,8 40,26 46.01,36 6,10 20,5.99 17.99,-8 -3.99,-32 -10,-82 -10,-200 0,-16.01 -21.99,-18 -24,-2 -1.99,12 -7.99,30 -20,52 -20,33.99 -70,46 -173.99,46 l -60,0 c -29.99,0 -36,-2.01 -36,-26 l 0,-94 c 0,-140 4,-190 18.01,-210 13.99,-21.988 57.99,-26 137.99,-26 47.99,0 96,2 126,8.012 30,3.988 54,17.988 74,37.988 16,20 27.99,50 36,74 5.99,16 25.99,14.012 25.99,-1.988 0,-20 -7.99,-96.012 -20,-156.012 -5.99,-26 -17.99,-27.988 -71.99,-27.988 l -413.99,5.988 c -58.01,0 -110,-5.988 -184,-5.988 -22,0 -22,24 -6,25.988 67.99,14.012 130,26 144,82 3.99,20 10,62.012 10,216 l 0,0 z m -1807.794,977 c 322.5,-10 570.004,-187.5 834.994,-517.5 75,-92.5 150,-197.5 220.01,-297.5 10,-12.5 15,-12.5 34.99,15 52.5,70 107.51,147.5 152.51,222.5 37.5,72.5 17.5,87.5 -70.01,117.5 -27.49,7.5 -24.99,32.5 2.51,32.5 90,0 142.5,-7.5 199.99,-7.5 60,0 117.51,7.5 185.01,7.5 30,0 27.5,-25 2.49,-32.5 -129.99,-45 -144.99,-57.5 -237.49,-162.5 -87.5,-97.5 -145.01,-170 -207.5,-247.5 -10,-15 -10,-20 2.49,-37.5 137.51,-192.5 255,-370 405,-550 275.01,-332.5 532.5,-532.5 820,-532.5 197.5,0 282.5,60 335,130 32.5,42.5 45,82.5 57.5,117.5 7.5,17.5 17.5,15 27.5,5 10,-10 12.5,-25 7.5,-45 -80,-215 -290,-300 -500,-300 -380,0 -659.99,272.5 -849.99,495 -102.5,122.5 -165,217.5 -230,307.5 l -172.5,249.99 c -10,15 -15,17.5 -25,5 -45,-57.49 -142.5,-192.49 -207.5,-299.99 -62.5,-105 -32.5,-112.5 50,-145 27.49,-10 27.49,-32.5 -5,-32.5 -62.5,0 -127.5,7.5 -190,7.5 -60,0 -110,-7.5 -170.004,-7.5 -30,0 -27.504,22.5 -5.004,32.5 132.508,47.5 145.008,65 287.508,240 l 192.49,245 c 20.01,25 20.01,30 10.01,45 -117.5,170 -275,382.5 -402.5,515 -230.008,237.5 -447.504,345 -672.504,345 -207.5,0 -287.4998,-122.5 -307.4998,-247.5 -5,-27.5 -25,-32.5 -40,-20 -17.50386,12.5 -32.50386,40 -17.50386,77.5 14.99996,40 55.00386,97.5 117.50366,147.5 97.5,80 197.5,122.5 365,122.5 l 0,0 z m -130.875,-977 0,214 c 0,120 0,158 -7.996,208 -8,52 -52.004,73.99 -102.004,86 -21.996,6 -20,27.99 2.004,27.99 66,0 112,-5.99 174,-5.99 l 205.988,0 c 106.004,0 174,2 192.004,8 10,6 17.996,7.99 20,7.99 4,0 10,-3.99 7.996,-13.99 -10,-48 -13.996,-122 -10,-172 2.004,-26 -23.996,-30 -27.996,-6 -8.004,44 -38.004,88 -76,98 -40,12 -76.004,13.99 -148.004,13.99 l -51.996,0 c -42.004,0 -46.004,-3.99 -50,-35.99 -2.004,-18 -4,-72 -4,-134.01 l 0,-107.99 c 0,-24 0,-22.01 41.996,-26 l 42.004,0 c 111.996,0 157.996,6 176,12 24,8 40,26 45.996,36 6,10 20,5.99 18.004,-8 -4,-32 -10,-82 -10,-200 0,-16.01 -22.004,-18 -24,-2 -2.004,12 -8.004,30 -20,52 -20,33.99 -70,46 -174.004,46 l -60,0 c -30,0 -35.996,-2.01 -35.996,-26 l 0,-94 c 0,-140 4,-190 17.996,-210 14,-21.988 58,-26 138,-26 48.004,0 96,2 126,8.012 30,3.988 54,17.988 74,37.988 16,20 28.004,50 36,74 6,16 26,14.012 26,-1.988 0,-20 -7.996,-96.012 -20,-156.012 -6,-26 -17.996,-27.988 -72,-27.988 L 393.785,787.5 c -58,0 -110,-5.988 -184,-5.988 -22.004,0 -22.004,24 -6,25.988 68,14.012 130,26 143.996,82 4.004,20 10,62.012 10,216 l 0,0"
             style="fill:#ffffff;fill-opacity:1;fill-rule:evenodd;stroke:none"
             id="path22"
             inkscape:connector-curvature="0" /><path
             d="m 5047.22,1926.54 0,60.98 c 0,29.07 -1.15,43.89 -2.28,53.57 -2.27,19.95 -13.68,27.36 -32.48,30.77 -5.14,0.58 -4.55,7.42 1.13,7.42 18.81,0 36.48,-1.71 55.29,-1.71 l 71.8,0 c 15.96,0 33.07,0.56 40.47,3.98 2.28,1.15 5.13,0.57 4.55,-3.42 -2.27,-13.67 -4.55,-34.75 -3.99,-49.01 0.57,-5.69 -6.25,-7.41 -7.96,-1.7 -1.72,10.26 -8.56,23.94 -21.67,27.93 -11.4,3.42 -21.66,3.99 -42.16,3.99 l -16.53,0 c -6.85,0 -7.98,-2.29 -9.12,-7.98 -1.15,-7.41 -1.72,-23.94 -1.72,-40.48 l 0,-34.76 c 0,-7.41 0,-7.98 11.98,-7.98 l 14.23,0 c 29.07,0 42.19,1.15 46.74,2.29 5.71,1.7 10.84,3.98 13.11,8.54 2.28,4.57 6.85,3.43 6.27,-1.13 -1.13,-9.13 -2.85,-26.8 -2.27,-58.13 0,-3.99 -6.85,-4.57 -7.42,-1.15 -1.7,4.56 -2.85,10.27 -6.84,17.09 -6.27,10.83 -20.52,13.69 -49.59,13.69 l -12.53,0 c -13.11,0 -13.68,-0.57 -13.68,-7.98 l 0,-16.53 c 0,-41.04 1.14,-50.15 3.42,-59.28 2.29,-12.52 13.69,-18.23 35.33,-23.93 4.57,-1.14 5.14,-7.41 -3.41,-7.41 -13.11,0 -25.65,1.72 -46.16,1.72 -18.81,0 -35.91,-1.72 -55.86,-1.72 -6.27,0 -5.7,5.71 -1.7,7.41 13.11,3.99 26.78,10.26 29.63,21.66 2.27,11.4 3.42,20.51 3.42,63.26 l 0,0 z m -269.12,-79.22 c 55.84,0 74.65,46.16 74.65,100.3 0,63.83 -27.34,118.55 -92.89,118.55 -59.28,0 -74.67,-56.99 -74.67,-104.87 0,-58.69 29.08,-113.98 92.91,-113.98 l 0,0 z m 1.13,237.08 c 71.25,0 115.12,-54.14 115.12,-121.38 0,-38.75 -12.54,-67.82 -31.91,-89.48 -23.93,-26.78 -60.41,-44.45 -102.02,-44.45 -67.24,0 -117.4,48.43 -117.4,124.23 0,35.92 12.54,70.11 41.6,95.18 27.37,23.94 61.55,35.9 94.61,35.9 l 0,0 z m -520.41,-152.74 0,-29.05 c 0,-21.1 0.57,-34.77 3.99,-41.03 3.42,-10.27 10.84,-14.26 29.65,-19.96 5.13,-1.7 5.13,-7.41 -1.72,-7.41 -15.39,0 -33.62,1.72 -49.57,1.72 -18.81,0 -33.64,-1.72 -52.44,-1.72 -6.27,0 -6.84,5.71 -1.72,7.41 10.84,3.42 25.66,7.41 31.36,15.4 3.42,4.56 5.69,15.94 5.69,39.88 l 0,29.08 c 0,11.38 -1.7,16.52 -5.69,24.49 -14.25,28.5 -29.08,54.71 -46.17,80.94 -19.37,29.63 -21.66,34.76 -39.33,40.45 -5.69,1.71 -6.27,7.42 0,7.42 15.97,0 31.93,-1.71 42.75,-1.71 15.39,0 26.78,1.71 43.89,1.71 6.83,0 6.83,-5.71 1.72,-7.42 -21.1,-7.4 -25.1,-8.54 -14.83,-28.48 9.12,-18.81 26.78,-50.15 43.32,-74.67 2.85,-3.98 4.55,-2.85 7.4,1.72 11.96,18.81 30.77,49.57 39.89,72.95 7.99,18.24 2.85,22.23 -14.81,28.48 -4.57,1.15 -4,7.42 3.42,7.42 15.39,0 26.21,-1.71 41.02,-1.71 10.84,0 22.81,1.71 35.35,1.71 5.7,0 6.83,-5.71 1.13,-7.42 -25.08,-9.11 -29.06,-14.24 -46.15,-36.47 -20.53,-26.79 -42.19,-60.98 -51.88,-79.78 -4.55,-8.56 -6.27,-16.53 -6.27,-23.95 l 0,0 z m -396.66,145.91 78.64,0 41.03,0.56 c 10.27,0.58 21.09,3.99 28.5,9.12 3.42,2.29 7.42,0.58 6.27,-3.41 -6.27,-15.39 -6.27,-30.21 -7.41,-51.3 -0.56,-5.12 -5.7,-6.27 -7.98,-1.13 -3.99,10.25 -7.97,19.95 -22.23,23.94 -9.69,2.27 -22.79,3.99 -49.57,3.99 -7.42,0 -7.99,-1.72 -8.56,-6.27 -1.13,-5.14 -2.28,-25.08 -2.28,-62.69 l 0,-54.15 c 0,-38.18 0,-52.44 1.72,-66.11 2.85,-18.81 12.54,-21.09 34.76,-28.5 5.69,-1.7 5.12,-7.41 -2.28,-7.41 -19.38,0 -34.2,1.72 -56.43,1.72 -17.09,0 -29.63,-1.72 -52.99,-1.72 -6.85,0 -6.85,5.71 -1.15,7.41 19.96,5.7 35.92,7.99 37.62,23.36 1.15,7.98 3.42,25.65 3.42,68.4 l 0,56.42 c 0,40.46 -1.14,53.58 -1.14,58.13 0,9.69 -1.13,11.41 -8.55,11.41 -11.39,0 -48.44,0.57 -61.54,-6.27 -8.56,-5.14 -14.26,-16.54 -16.53,-23.95 -1.72,-5.69 -7.98,-4.55 -7.98,1.72 0,5.12 3.41,27.93 3.41,51.86 0,6.84 3.99,7.41 7.42,3.98 3.42,-3.41 7.97,-5.13 14.24,-6.84 5.71,-1.71 17.09,-2.27 49.59,-2.27 l 0,0 z m -265.13,-146.48 0,50.73 c 0,34.2 0,55.86 -2.27,67.82 -3.42,14.82 -15.96,19.37 -27.36,22.22 -4.55,1.15 -3.99,7.42 2.85,7.42 22.81,0 33.05,-1.71 50.16,-1.71 12.53,0 22.79,1.71 38.76,1.71 6.82,0 6.82,-6.27 1.14,-7.42 -9.69,-2.27 -22.8,-6.82 -25.08,-20.5 -2.85,-13.68 -2.85,-35.34 -2.85,-69.54 l 0,-50.73 c 0,-34.19 0,-54.7 3.42,-68.95 2.85,-13.11 14.82,-17.66 28.49,-20.52 5.12,-1.14 5.12,-7.41 -1.7,-7.41 -18.81,0 -32.5,1.72 -48.45,1.72 -13.68,0 -27.93,-1.72 -45.59,-1.72 -6.27,0 -6.84,6.27 -1.15,7.41 11.4,1.72 24.51,7.41 26.79,17.68 2.84,17.09 2.84,37.6 2.84,71.79 l 0,0 z m -216.62,153.31 c 22.22,0 33.06,-7.4 38.18,-10.83 5.7,-3.98 6.27,-9.11 6.27,-11.95 0,-2.85 -0.57,-5.7 -1.7,-10.26 -0.57,-4.56 -1.72,-11.98 -1.72,-22.24 0,-6.26 -7.4,-6.26 -7.97,0.58 -0.58,4.56 -2.85,11.39 -10.27,19.94 -9.69,11.4 -22.79,17.1 -38.75,17.1 -19.38,0 -33.62,-13.11 -33.62,-35.9 0,-31.35 23.36,-43.32 47.29,-51.87 33.63,-11.96 62.7,-24.51 62.7,-65.53 0,-31.93 -19.95,-53.58 -35.34,-64.98 -17.67,-13.1 -37.61,-19.37 -56.42,-19.37 -18.23,0 -33.05,3.98 -43.87,10.25 -10.27,6.85 -16.54,13.69 -18.81,21.66 -1.15,3.98 1.7,10.25 4.55,14.24 2.85,4.56 7.42,17.1 9.69,22.24 1.72,3.98 6.84,3.41 7.4,-1.71 0,-3.43 0,-8.56 3.99,-17.1 7.42,-15.39 31.93,-29.06 54.16,-29.06 26.77,0 42.16,14.8 42.16,43.87 0,30.22 -22.22,44.45 -52.42,55.29 -38.77,13.68 -56.99,31.91 -56.99,61.55 0,14.82 4.55,32.49 21.64,49.02 13.69,13.67 35.35,25.06 59.85,25.06 l 0,0 z m -371.65,-62.69 0,-55.28 c 0,-6.27 0.57,-7.97 5.12,-8.54 7.4,-0.58 14.24,-0.58 26.21,-0.58 18.81,0 43.32,10.27 43.32,42.74 0,34.21 -22.79,64.41 -62.69,64.41 -7.97,0 -9.12,-1.71 -10.26,-5.69 -1.13,-3.42 -1.7,-10.84 -1.7,-37.06 l 0,0 z m -35.35,-108.84 0,89.46 c 0,20.53 -1.7,34.2 -2.28,43.9 -1.13,7.4 -2.85,10.25 -4.55,12.54 -3.99,3.98 -16.53,5.69 -27.35,6.84 -7.42,0.56 -6.85,6.25 0,7.4 7.97,1.13 54.14,7.4 90.61,7.4 85.49,2.29 89.47,-47.87 89.47,-64.39 0,-23.93 -13.67,-42.17 -23.94,-48.44 l -11.39,-7.42 c -2.85,-1.7 -3.98,-3.41 -1.7,-8.54 19.36,-40.46 47.3,-76.38 67.25,-92.32 18.8,-15.39 33.61,-19.38 35.89,-19.96 2.29,-0.57 2.86,-3.98 1.14,-4.55 -2.27,-1.14 -11.96,-3.42 -23.93,-3.42 -21.09,0 -42.75,6.83 -55.86,18.24 -21.09,19.94 -35.9,46.73 -52.99,79.78 -5.13,10.82 -9.12,11.97 -15.39,11.4 -7.98,-0.58 -17.11,-1.71 -26.21,-1.71 -2.85,0 -3.42,-1.15 -3.42,-11.97 l 0,-23.94 c 0,-18.23 0.57,-24.5 1.7,-31.35 3.42,-18.23 7.41,-23.36 32.48,-30.2 6.27,-1.7 6.27,-7.41 -0.56,-7.41 -15.39,0 -31.92,1.72 -48.44,1.72 -17.11,0 -34.77,-1.72 -50.72,-1.72 -6.27,0 -7.42,5.71 -1.14,7.41 21.65,5.7 26.78,10.26 29.05,26.78 0.58,7.99 2.28,22.23 2.28,44.47 l 0,0 z m -308.88,13.67 0,60.98 c 0,34.19 0,45.02 -2.28,59.28 -2.28,14.82 -14.82,21.08 -29.07,24.49 -6.27,1.72 -5.69,7.99 0.57,7.99 18.8,0 31.91,-1.71 49.58,-1.71 l 58.7,0 c 30.21,0 49.59,0.56 54.72,2.27 2.85,1.71 5.12,2.28 5.69,2.28 1.15,0 2.85,-1.14 2.28,-3.99 -2.85,-13.67 -3.98,-34.75 -2.85,-49.01 0.57,-7.41 -6.84,-8.55 -7.97,-1.7 -2.28,12.54 -10.84,25.08 -21.66,27.93 -11.39,3.42 -21.66,3.99 -42.18,3.99 l -14.82,0 c -11.95,0 -13.1,-1.15 -14.23,-10.26 -0.58,-5.13 -1.15,-20.53 -1.15,-38.2 l 0,-30.76 c 0,-6.84 0,-6.27 11.98,-7.42 l 11.95,0 c 31.93,0 45.03,1.71 50.17,3.42 6.82,2.29 11.39,7.42 13.09,10.27 1.71,2.85 5.7,1.7 5.13,-2.28 -1.13,-9.13 -2.85,-23.37 -2.85,-57 0,-4.56 -6.27,-5.12 -6.83,-0.57 -0.57,3.42 -2.29,8.55 -5.69,14.82 -5.7,9.68 -19.96,13.1 -49.59,13.1 l -17.09,0 c -8.56,0 -10.27,-0.57 -10.27,-7.41 l 0,-26.78 c 0,-39.89 1.15,-54.15 5.14,-59.84 3.98,-6.27 16.51,-7.4 39.31,-7.4 13.69,0 27.36,0.56 35.9,2.28 8.55,1.14 15.39,5.12 21.09,10.81 4.57,5.7 7.99,14.26 10.26,21.09 1.72,4.57 7.42,4 7.42,-0.57 0,-5.69 -2.29,-27.34 -5.7,-44.44 -1.72,-7.41 -5.14,-7.99 -20.53,-7.99 l -117.96,1.72 c -16.53,0 -31.34,-1.72 -52.44,-1.72 -6.27,0 -6.27,6.84 -1.71,7.41 19.38,3.99 37.05,7.41 41.03,23.36 1.14,5.7 2.86,17.68 2.86,61.56 l 0,0 z m -208.1,72.95 -47.89,-107.15 c -10.24,-22.79 -14.8,-36.46 -18.79,-43.31 -8.55,-16.53 -15.97,-22.8 -18.25,-22.8 -2.84,0 -4.56,2.29 -6.27,6.84 l -25.07,70.1 -44.46,114.55 c -14.82,36.48 -18.81,42.19 -33.04,49.58 l -9.7,4.56 c -5.12,2.28 -6.27,7.42 1.72,7.42 17.09,0 27.92,-1.71 41.59,-1.71 17.68,0 34.2,1.71 51.29,1.71 6.84,0 6.84,-5.71 1.72,-7.42 l -14.82,-5.69 c -15.39,-6.83 -11.39,-16.53 -3.42,-40.47 16.52,-48.43 34.77,-93.47 51.87,-131.64 3.41,-7.99 5.13,-8.55 9.12,0 17.66,36.48 47.86,111.7 55.85,137.35 7.4,25.07 3.41,31.91 -14.26,38.18 l -6.27,2.27 c -4.56,1.71 -3.99,7.42 1.72,7.42 15.95,0 30.21,-1.71 43.87,-1.71 14.26,0 28.51,1.71 41.62,1.71 6.84,0 6.27,-5.14 1.13,-7.42 l -12.54,-5.69 c -16.52,-6.83 -25.07,-20.52 -46.72,-66.68 l 0,0 z m -389.36,-68.4 0,50.73 c 0,34.2 0,55.86 -2.28,67.82 -3.42,14.82 -15.97,19.37 -27.35,22.22 -4.56,1.15 -3.99,7.42 2.83,7.42 22.81,0 33.06,-1.71 50.16,-1.71 12.54,0 22.8,1.71 38.75,1.71 6.85,0 6.85,-6.27 1.15,-7.42 -9.7,-2.27 -22.81,-6.82 -25.08,-20.5 -2.84,-13.68 -2.84,-35.34 -2.84,-69.54 l 0,-50.73 c 0,-34.19 0,-54.7 3.42,-68.95 2.84,-13.11 14.8,-17.66 28.49,-20.52 5.12,-1.14 5.12,-7.41 -1.71,-7.41 -18.82,0 -32.48,1.72 -48.44,1.72 -13.69,0 -27.93,-1.72 -45.61,-1.72 -6.26,0 -6.83,6.27 -1.12,7.41 11.38,1.72 24.49,7.41 26.77,17.68 2.86,17.09 2.86,37.6 2.86,71.79 l 0,0 z m -188.74,24.52 0,-41.04 c 0,-42.75 1.14,-67.25 1.71,-71.81 1.15,-9.69 -2.28,-10.83 -5.69,-10.83 -4.56,0 -11.41,4 -15.39,7.41 -6.85,5.7 -12.54,11.41 -13.69,13.12 l -140.76,168.69 c -1.72,1.71 -2.85,-0.58 -3.43,-5.13 -0.56,-5.14 -0.56,-15.4 -0.56,-40.47 l 0,-48.44 c 0,-67.25 10.83,-74.65 22.8,-79.22 l 16.52,-6.27 c 4.56,-1.7 4.56,-7.97 -2.84,-7.41 -13.68,0.58 -28.5,1.72 -44.47,1.72 -15.94,0 -32.48,-1.72 -44.44,-1.72 -7.42,0 -7.42,5.13 -2.28,7.41 l 11.4,4.57 c 9.11,3.42 17.66,10.26 20.51,19.36 2.86,10.84 5.14,46.74 5.14,88.91 l 0,59.27 c 0,24.52 -2.28,30.22 -6.27,37.63 -6.84,11.96 -22.81,17.09 -34.77,20.5 -5.14,1.15 -5.14,7.42 1.13,7.42 15.97,0 29.65,-2.28 42.75,-2.28 4.55,0 9.11,0 15.96,0.57 8.55,0.56 10.25,0 10.83,-2.86 1.7,-6.26 5.13,-13.09 14.81,-24.5 15.97,-22.22 63.27,-79.21 128.8,-149.32 4,-3.99 5.14,-3.41 5.14,1.72 l 0,55.85 c 0,35.33 -1.71,53.57 -3.99,74.65 -2.86,26.8 -9.12,31.35 -37.04,38.75 -5.7,1.15 -4.57,7.42 1.14,7.42 15.37,0 31.91,-1.71 49.01,-1.71 14.82,0 28.49,1.71 41.03,1.71 6.84,0 6.84,-5.14 1.13,-7.42 -13.67,-5.69 -24.49,-11.39 -28.49,-31.9 -2.84,-16.53 -5.7,-46.73 -5.7,-84.35 l 0,0 z m -580.2,-34.2 0,94.04 c 0,31.35 -1.13,36.47 -3.41,41.6 -3.98,8.56 -15.96,11.96 -26.21,14.81 -5.14,0.58 -5.14,7.42 0.56,7.42 22.81,0 31.35,-1.71 45.59,-1.71 17.11,0 26.8,1.71 47.3,1.71 6.84,0 7.42,-6.27 1.72,-7.42 -11.97,-2.27 -17.66,-6.25 -21.08,-11.95 -7.41,-9.7 -9.12,-39.34 -9.12,-78.66 l 0,-42.17 c 0,-31.35 7.98,-54.14 19.95,-64.4 10.25,-10.27 28.48,-21.09 53.57,-21.09 13.11,0 33.04,0.57 47.3,15.96 14.82,13.68 23.37,41.04 23.37,93.47 l 0,42.16 c 0,26.23 -2.86,38.2 -5.71,45.61 -4.55,10.83 -14.25,15.38 -31.34,21.07 -5.14,1.71 -3.99,7.42 1.13,7.42 16.54,0 32.49,-1.71 49.03,-1.71 13.66,0 26.2,1.71 37.6,1.71 6.27,0 6.84,-6.27 1.15,-7.42 -9.7,-2.27 -18.25,-7.4 -22.81,-19.36 -2.84,-7.41 -4.56,-19.39 -5.69,-42.75 l -2.86,-67.25 c -2.84,-67.82 -43.87,-113.41 -109.99,-113.41 -31.33,0 -57.55,9.11 -73.52,28.5 -10.83,13.66 -16.53,31.34 -16.53,63.82 l 0,0"
             style="fill:#ffffff;fill-opacity:1;fill-rule:evenodd;stroke:none"
             id="path24"
             inkscape:connector-curvature="0" /></g></g></g></g></svg>